<svg id="Layer_1" data-name="Layer 1" xmlns="http://www.w3.org/2000/svg" viewBox="0 0 348.77 314.44"><defs><style>.cls-1{fill:#f0f0f0;}.cls-2{fill:#939393;}.cls-3{fill:#949494;}.cls-4{fill:#a6a6a6;}.cls-5{fill:#a7a7a7;}.cls-6{fill:#a8a8a8;}.cls-7{fill:#979797;}.cls-8{fill:#969696;}.cls-9{fill:#a1a1a1;}.cls-10{fill:#999;}.cls-11{fill:#9b9b9b;}.cls-12{fill:#f3f3f3;}.cls-13{fill:#9d9d9d;}.cls-14{fill:#aaa;}.cls-15{fill:#9e9e9e;}.cls-16{fill:#a5a5a5;}.cls-17{fill:#a0a0a0;}.cls-18{fill:#efefef;}.cls-19{fill:#9f9f9f;}.cls-20{fill:#adadad;}.cls-21{fill:#a2a2a2;}.cls-22{fill:#989898;}.cls-23{fill:#959595;}.cls-24{fill:#f1f1f1;}.cls-25{fill:#a4a4a4;}.cls-26{fill:#9c9c9c;}.cls-27{fill:#929292;}.cls-28{fill:#f5f5f5;}.cls-29{fill:#8d8d8d;}.cls-30{fill:#bfbfbf;}.cls-31{fill:#9a9a9a;}.cls-32{fill:#888;}.cls-33{fill:#8e8e8e;}.cls-34{fill:#8f8f8f;}.cls-35{fill:#909090;}.cls-36{fill:#fbfbfb;}.cls-37{fill:#b1b1b1;}.cls-38{fill:#8b8b8b;}.cls-39{fill:#f7f7f7;}.cls-40{fill:#f4f4f4;}.cls-41{fill:#f9f9f9;}.cls-42{fill:#cfcfcf;}.cls-43{fill:#aeaeae;}.cls-44{fill:#dedede;}.cls-45{fill:#fcfcfc;}.cls-46{fill:#c8c8c8;}.cls-47{fill:#b6b6b6;}.cls-48{fill:#f8f8f8;}.cls-49{fill:#afafaf;}.cls-50{fill:#a3a3a3;}.cls-51{fill:#acacac;}.cls-52{fill:#dadada;}.cls-53{fill:#868686;}.cls-54{fill:#fdfdfd;}.cls-55{fill:#d0d0d0;}.cls-56{fill:silver;}.cls-57{fill:#ababab;}.cls-58{fill:#bdbdbd;}.cls-59{fill:#e7e7e7;}.cls-60{fill:#fefefe;}.cls-61{fill:#e9e9e9;}.cls-62{fill:#d4d4d4;}.cls-63{fill:#a9a9a9;}.cls-64{fill:#919191;}.cls-65{fill:#898989;}.cls-66{fill:#f6f6f6;}.cls-67{fill:#eaecee;}.cls-68{fill:#f9dd81;}.cls-69{fill:#fee99d;}.cls-70{fill:#8c8e93;}.cls-71{fill:#e5e5e5;}.cls-72{fill:#bebebe;}.cls-73{fill:#e6e6e6;}.cls-74{fill:#eee;}.cls-75{fill:#bbb;}.cls-76{fill:#8c8c8c;}.cls-77{fill:#c1c1c1;}</style></defs><path class="cls-1" d="M322,246.1c.9,1,2.1.9,3.2.9,15.6-.3,31.2.9,46.8,1.2s31.1.8,46.3,4.7c1.6.4,3.9.3,3.9,2.2,0,2.1-2.4,2.5-4.1,2.8-13.1,2-26.2,3.3-39.5,4.1-23.8,1.5-47.6,1-71.3.9-22.2-.2-44.4-1.4-66.3-4.9-1.8-.3-4.3-.7-4.4-2.6-.1-2.1,2.6-1.9,4.2-2.4,10.8-2.9,21.9-3.2,32.9-4.1,10.1-.9,20.2-.7,30.4-1a4.83,4.83,0,0,1,4,1.2c1.7,2.1-.5,4.1-.2,6.6,3.7-2.2,6.4-5,9.4-7.4C318.8,247.2,319.8,245.2,322,246.1Z" transform="translate(-154.83 -84.06)"/><path class="cls-2" d="M436.1,168.1A38.24,38.24,0,0,1,397,199.5c-18.6-.8-37.2-.3-55.8-.3-2.1.4-4.2.9-6.4,1.3-8.6.3-17.1.4-25.7,0-2.1-.4-4.3-.8-6.4-1.3-24,0-47.9.1-71.9.1-6.2,0-10.1-4.1-10.1-9.9,0-6.1,4-10.3,10.3-10.4,3.1,0,5.2.5,4-4.3-4.8-18.3,9.3-34,28.1-31.4,3.9.6,4.4-.8,4.8-3.8,4-27.2,25.8-49.9,52.2-54.4,29.2-5,57.4,8.3,70.7,33.6,2.1,4,3.8,6,9.1,6,19,0,33.4,14.5,36.2,31.2a3.07,3.07,0,0,1,.6,2.1,21,21,0,0,0,0,7.9A3.34,3.34,0,0,1,436.1,168.1Z" transform="translate(-154.83 -84.06)"/><path class="cls-3" d="M335.8,199.1a4.5,4.5,0,0,1,5.4,0c-1.4,1.2-2.6,2.6-2.4,4.8,7.3,1.1,14.6.7,21.8.9,1.6,0,3.7-.8,4.5,1.1s-1.5,2.8-2.6,3.8Q342.25,228,322,246.1c-3.9,3.3-7.7,6.7-11.6,10-1.1.9-2.1,2.7-3.7,1.7s-.5-2.6,0-4c.5-1.6,1-3.1,1.5-4.7a195.08,195.08,0,0,0,8.5-21.2c-6.7,0-12.8-.1-19,0-3.8.1-5.2-.8-3.4-4.9,2.9-6.5,5.5-13.2,8.1-19.8.5-1.3,1.8-2.6.3-4.1a4.5,4.5,0,0,1,5.4,0c.5,2.1-.8,3.7-1.4,5.5-2,4.9-4.2,9.8-6.1,14.7-1.2,3.1-.4,4.3,2.9,4.3,4.3,0,8.6-.2,13,.1s5.7,2,4.2,6.2c-1.9,5.5-4.4,10.8-6.4,16.5,13.7-12.1,27.1-24.2,41.2-36.8-5.3-.7-10-.2-14.6-.4-1.8-.1-3.7.2-5.3-.9-1.2-.8-.9-1.6.5-2h21.7c-7.4.1-14.9-.1-22.3.1-1.5,1.3-1.8.1-2.2-1A11.1,11.1,0,0,1,335.8,199.1Z" transform="translate(-154.83 -84.06)"/><path class="cls-4" d="M252.5,302.4c-2.4,7.4-4.4,13.4-6.2,19.4-.6,2.1-1.4,3.9-3.9,3.9-2.7,0-3.5-2-4.1-4.2-2.1-8.4-4.3-16.7-6.4-25.1-.4-1.6-1.4-3.4,1-4.1s3.9.7,4.4,2.9c1.3,5.5,2.4,11,3.6,16.5a15.59,15.59,0,0,0,2.2,5.7c1.6-5.3,3.2-10.6,4.9-15.9.7-2.3,1.2-5.2,4.5-5.2,2.9,0,3.5,2.7,4.2,4.9a114.75,114.75,0,0,0,5.7,16.1c1.5-6.6,3-13.3,4.5-19.9a16.23,16.23,0,0,1,1.5-4.2,2.46,2.46,0,0,1,3.1-.9,2.07,2.07,0,0,1,1.3,2.8c-2.3,9.3-4.7,18.7-7.1,28-.5,1.9-2.2,2.5-3.9,2.5-1.9,0-2.8-1.4-3.4-3.1C256.8,316.2,254.9,310,252.5,302.4Z" transform="translate(-154.83 -84.06)"/><path class="cls-5" d="M295.9,309c-.4-3.7-3-4.6-6-4.4-3.5.3-5.4,2.6-5.7,5.9-.3,3.6-.1,7.3-.1,11,0,1.8-.4,3.4-2.6,3.5-2.4.1-2.5-1.7-2.5-3.5V293.6c0-1.4-.5-3.4,1.8-3.3,2,0,3,1.5,3.1,3.3.2,3.1,0,6.2,0,9.4,2,.1,2.6-1.3,3.8-1.9,6.1-3.1,13,.6,13.4,7.4.2,4.3.1,8.6.1,13,0,4.2-1.9,4.5-5,2.5C294.9,319,295.5,314,295.9,309Z" transform="translate(-154.83 -84.06)"/><path class="cls-5" d="M370,333c-.7,2.9-2.2,2.6-4.1,1,.2-9.3,0-18.6.1-27.9,0-2.1-.4-4.6,3.1-4.3.9.7,1.1,2.1,3,.9,6.1-3.9,11.7-3.2,15.5,1.5s3.4,14.2-.9,18.5-9.7,4.3-15.7,0c-.3-.2-.5-.4-.8-.6C368.9,325.6,369.3,329.3,370,333Z" transform="translate(-154.83 -84.06)"/><path class="cls-5" d="M332,312.9a12.71,12.71,0,0,1-12.9,13c-7.4,0-12.8-5.4-12.9-13A12.56,12.56,0,0,1,319.1,300,12.74,12.74,0,0,1,332,312.9Z" transform="translate(-154.83 -84.06)"/><path class="cls-5" d="M348.1,325.9a13,13,0,1,1,12.7-13.1A12.65,12.65,0,0,1,348.1,325.9Z" transform="translate(-154.83 -84.06)"/><path class="cls-5" d="M402.8,300.1c3.8-.1,6.2.4,8.3,1.9,1.3.9,2.4,2.1,1.4,3.8-1.2,2.1-2.5.6-3.6-.2a8.59,8.59,0,0,0-7.1-1.3c-1.5.4-2.9,1.1-2.9,2.9a2.8,2.8,0,0,0,2.4,2.8c2.5.7,5.1,1.3,7.7,2.2s4.7,2.7,4.8,5.7a7.12,7.12,0,0,1-3.9,6.5c-3.9,2.4-11.3,2-14.7-.8-1.1-.9-2.6-2-1.4-3.7s2.3-.4,3.4.2a11.08,11.08,0,0,0,8.1,1.7c1.6-.4,3.4-1,3.4-3,0-1.7-1.3-2.6-2.9-3-1.8-.5-3.5-.9-5.3-1.4-3.6-1-6.7-2.3-6.5-6.9s3.6-6.3,7.6-7.3C402.4,300,403.2,300,402.8,300.1Z" transform="translate(-154.83 -84.06)"/><path class="cls-6" d="M425.1,299.5c-.4,4.5-.8,8.8-1.2,13.1-.1,1.2-.1,2.6-1.6,2.6s-1.4-1.6-1.5-2.7c-.6-5.6-1.2-11.2-1.7-16.8-.2-2.1.4-3.6,2.8-3.8,2.9-.2,3.2,1.6,3.1,3.8C425.1,297.1,425.1,298.4,425.1,299.5Z" transform="translate(-154.83 -84.06)"/><path class="cls-7" d="M258.1,232.6c3.4,3.5,2.2,5.6-1.6,7.2-3.4,1.4-6.7,2.9-10,4.4-1,.4-2,.7-2.6-.4s.3-1.9,1.2-2.3c3.5-1.7,7.1-3.4,10.5-5-.2-2.5-4.8-1.8-2.9-5,.7-1.2,9.3-4,10.2-3.4,1.6,1.1.7,2-.4,2.6C261.1,231.4,259.7,231.9,258.1,232.6Z" transform="translate(-154.83 -84.06)"/><path class="cls-8" d="M386,240.6c3.8,1.7,7.1,3.2,10.4,4.7,1,.5,2.4,1.1,1.8,2.5s-1.9.8-3,.4c-3.6-1.6-7.3-3.3-10.9-4.9-1.9-.9-3.3-2.5-1.9-4.3,2.1-2.6.3-2.8-1.4-3.6-1.1-.5-3-.8-2.2-2.6.8-1.5,2.3-.7,3.6-.2,1.1.4,2.2.8,3.3,1.3C391.4,236.2,391.4,236.3,386,240.6Z" transform="translate(-154.83 -84.06)"/><path class="cls-7" d="M361.6,243c-3.6-.5-5.6-2.8-5.4-6.4a5.33,5.33,0,0,1,5.9-5.4c3.7.1,5.9,2.4,5.8,6S365.3,242.8,361.6,243Z" transform="translate(-154.83 -84.06)"/><path class="cls-9" d="M369.1,301.8c-1.9.8-2.2,2.3-2.2,4.3q.15,11.4,0,22.8c0,1.7.6,3.7-1,5.1-1.7-5.5-.5-11.1-.7-16.7-.2-4.6-.1-9.3,0-13.9C365.3,300.6,366.6,299.5,369.1,301.8Z" transform="translate(-154.83 -84.06)"/><path class="cls-10" d="M275.8,212.4c-.5,2.8-2,4.6-4.9,4.5a4.34,4.34,0,0,1-4.5-4.4c-.1-2.8,1.5-4.7,4.6-4.7S275.4,209.6,275.8,212.4Z" transform="translate(-154.83 -84.06)"/><path class="cls-7" d="M287.4,240.3c-3,1-4,3.5-5.7,5.4a19.78,19.78,0,0,0-5.5-5.3,18.73,18.73,0,0,0,5.4-5.8C283.1,236.7,284.3,239.3,287.4,240.3Z" transform="translate(-154.83 -84.06)"/><path class="cls-8" d="M377.4,210.7c1.1,5,7-1.6,6,1.9-.7,2.4,2,7.9-.6,6.5-2.9-1.5-7.1,3.3-6.7-.9C376.2,216.3,373.6,212.8,377.4,210.7Z" transform="translate(-154.83 -84.06)"/><path class="cls-11" d="M457.7,363.8c-5.1,2.8-9,2.4-11.2-1.2-2.3-3.9-.8-8.1,3.5-10.5.6.3,1.3.6,1.3,1.5a6.5,6.5,0,0,1-.9,2.3c-.9,1.7-1.6,3.4-.3,5.1s2.9,1.2,4.5.8c1.4-.4,3-1,3.7,1A.8.8,0,0,1,457.7,363.8Z" transform="translate(-154.83 -84.06)"/><path class="cls-12" d="M493.2,356.9h.8a5.21,5.21,0,0,1,0,7h-.8a3.81,3.81,0,0,0-1.5.1c-2.1,1-4.3,1.3-5.8-.8a4.78,4.78,0,0,1,.7-6.7C488.8,355.2,491,356.5,493.2,356.9Z" transform="translate(-154.83 -84.06)"/><path class="cls-13" d="M286.2,355.8c3.4,2.5,3.7,5.5.9,8.4-2.3,2.4-5.2,2.3-7.4-.1-2.7-3-2.4-6,1.2-8.3.9-.5,1.3,0,1.5.8.1,1.7-1.7,3.5.4,5a1.2,1.2,0,0,0,1.4,0c2-1.5.2-3.4.5-5.1C284.9,355.9,285.3,355.3,286.2,355.8Z" transform="translate(-154.83 -84.06)"/><path class="cls-14" d="M383.8,351.7c-.1,1.7-.3,3.8,1.3,5.2-2.5,1.9-.7,4.7-1.5,6.9a4.18,4.18,0,0,1-1.1,1.5c-.1.1-1.1-.5-1.1-.7.5-3.9-2.8-7.8.1-11.7C382.5,351.6,382.5,351.6,383.8,351.7Z" transform="translate(-154.83 -84.06)"/><path class="cls-15" d="M251.3,356.8c.6.4,1.1.8,1.7,1.2,1.6,3.4-.7,3.8-3.3,4.3,1.2.3,2.6-.5,3.3.8-2.3,3.9-5.4,3.8-8.2,1.1s-2.4-6,1.1-8.4c.7-.4,1.2,0,1.5.6.1.6-.1,1.2,0,1.8a1.27,1.27,0,0,0,1.8.1c.4-.6.5-1.4,1.1-1.7A.78.78,0,0,1,251.3,356.8Z" transform="translate(-154.83 -84.06)"/><path class="cls-16" d="M291.9,393c-3.9-3.7-4-5.2-.1-9.2.6-.4,1.1-.1,1.5.4a4.33,4.33,0,0,1,.1,1.6c.4.8,1,.7,1.6.4a14.67,14.67,0,0,0,.6-1.4,1.76,1.76,0,0,1,1.3-.9c1.9.8,2.1,2.4,2.3,4.1-.3,2.5-2.7,1.6-4,2.4,1.2.1,2.7-.7,3.8.5l-1.8,2.1A7.44,7.44,0,0,1,291.9,393Z" transform="translate(-154.83 -84.06)"/><path class="cls-17" d="M249.8,391.6c-2.3,2.9-4.6,2.8-6.9.9a4.9,4.9,0,0,1-1.2-6.7c1.3-2.2,3.2-3.6,7-1.9-3.1,1.2-6.3,1.8-5.4,5.2S246.9,392.2,249.8,391.6Z" transform="translate(-154.83 -84.06)"/><path class="cls-4" d="M237.9,357c-3.4-.3-4.1,1.7-4.1,4.6,0,1.6,1.1,4.7-2.7,3.4-.6-3.3-1.2-6.7.3-10,1.5.4,2.9.9,4.6.2a2.17,2.17,0,0,1,3.3,1.7C238.8,357.3,238.4,357.4,237.9,357Z" transform="translate(-154.83 -84.06)"/><path class="cls-9" d="M307,384.8c-2.5.4-4.3,1.6-3.7,4.3.8,3.6,3.9,2.6,7.1,2.2-2.4,3.3-4.7,3-6.9,1.6-2.5-1.7-3.4-4.3-1.8-6.9,1.4-2.4,3.4-4.3,6.5-2.1C308,384.5,307.4,384.5,307,384.8Z" transform="translate(-154.83 -84.06)"/><path class="cls-18" d="M254,388.5h0c.5-1.5.4-3.4,2.3-4.1a4.35,4.35,0,0,1,4,.2c2.1,1.4,1.8,3.4,1.5,5.5-.9,2-2.4,3-4.6,2.6C254.8,392.3,254.5,390.3,254,388.5Z" transform="translate(-154.83 -84.06)"/><path class="cls-16" d="M323.9,359.1c.1.3.2.6.3,1,.1,2.1-2,1.5-3,2.4,1-.1,2-.2,2.7.6-.1,2.8-2.2,3-4.2,2.9s-4.1-.8-4.6-3-1.1-4.7,1.9-5.9c.2.1.3.2.5.3a6.89,6.89,0,0,0,1.3,1.1C320.5,358.9,322.3,358.2,323.9,359.1Z" transform="translate(-154.83 -84.06)"/><path class="cls-6" d="M416.9,384.1c3.2,2.3,2.8,6.2,1.6,8.3-1,1.7-4.9,2.1-7.7.6a4.14,4.14,0,0,1,1.9-1.8c.7-.5,1.9-.8,1.1-2.1a2.28,2.28,0,0,1-.3-1.1c.1-1.3,1.1-2.2,1.9-3.1A1.65,1.65,0,0,1,416.9,384.1Z" transform="translate(-154.83 -84.06)"/><path class="cls-19" d="M155.7,365.7c-1.5-4.3-.6-8.3-.6-12.2a1.77,1.77,0,0,1,1.1-1.4c1.6-.2,2.1,1.3,2.9,2.3.5.6,1.3,1.9.5,2-4.5.6-1.7,4-2.4,5.9C156.7,363.3,157.3,364.6,155.7,365.7Z" transform="translate(-154.83 -84.06)"/><path class="cls-13" d="M259,356.9c-1.4,3.1-2.3,6.1,1.9,7.7-1,1.4-2,1.4-2.9,1-2.4-1-3.7-10.6-1.6-12.1,1.4-1,1.5.5,1.7,1.3C258.5,355.5,259.6,355.8,259,356.9Z" transform="translate(-154.83 -84.06)"/><path class="cls-11" d="M497.1,351.7c1.6,1.9.2,4.5,1.3,6.9,1.4-1.2,2.6-2.3,4.1-3.6.8,2.7-2.3,3.4-2,5.3s3,2.5,3.1,4.9c-2.7.1-3.1-2.9-5.1-3.5-1.3.7-.1,2.6-1.6,3.2A13.5,13.5,0,0,1,497.1,351.7Z" transform="translate(-154.83 -84.06)"/><path class="cls-20" d="M422.3,319.2c2.3.3,2.9,1.6,2.9,3.5s-1,3.2-3.1,3a3.09,3.09,0,0,1-2.9-3.4A3.18,3.18,0,0,1,422.3,319.2Z" transform="translate(-154.83 -84.06)"/><path class="cls-17" d="M201.1,390.2a14.15,14.15,0,0,1-4.4,8.3c2.1-6-1.5-9.8-2.9-14.9,3,1.4,3,3.6,4,5.1,1.9,3,1.8.1,2.4-.7C202.1,388,201.5,389.2,201.1,390.2Z" transform="translate(-154.83 -84.06)"/><path class="cls-19" d="M207,356.9c-1.6,3.1-1.8,6,1.8,7.9a1.82,1.82,0,0,1-2.7.8c-2.4-1.1-3.7-10.5-1.7-12.1,1.4-1.1,1.5.3,1.7,1.2C206.4,355.4,207.7,355.8,207,356.9Z" transform="translate(-154.83 -84.06)"/><path class="cls-5" d="M487,357.1c-1.2,1.9-2,4-.2,5.9,1.6,1.6,3.2.8,4.9-.3,1.2-.7,1.2.5,1.4,1.2-2.8,2.5-5.8,2.9-8.3,0-2.2-2.7-2.3-5.8,1.1-8C487,355.7,487.3,356.1,487,357.1Z" transform="translate(-154.83 -84.06)"/><path class="cls-15" d="M481.9,363.1c-2.3,3.8-5.5,3.7-8.2,1-2.9-2.9-2.3-6,1.1-8.3a1.06,1.06,0,0,1,1.5.5,9.65,9.65,0,0,1,0,1.7,2.53,2.53,0,0,0,1,1.8,2,2,0,0,1,.2,1.1c-.1.3-.3.7-.4,1,.9,1.5,2.1.3,3.2.5A1.4,1.4,0,0,1,481.9,363.1Z" transform="translate(-154.83 -84.06)"/><path class="cls-13" d="M331,356.9c-2.2,1.4-2.8,3.4-1.5,5.5,1.8,2.8,4,1,6.4-.2,0,3-2,3.4-3.9,3.5a4.5,4.5,0,0,1-4.9-3.5c-.8-2.7-.7-5.4,2.6-6.6C330.9,355.4,331.2,355.9,331,356.9Z" transform="translate(-154.83 -84.06)"/><path class="cls-5" d="M416,355.8c2.3-1.8,4-.8,5.1,1.4a9.15,9.15,0,0,1,.3,7.6c-.1.3-.9.5-1.2.4-1.1-.5-1-1.6-1-2.6-.1-2.5.9-5.6-3.2-5.9q-.45-.3-.3-.6A.27.27,0,0,1,416,355.8Z" transform="translate(-154.83 -84.06)"/><path class="cls-13" d="M382.1,385.1c.5,2.6-2,6.2,2.5,7.2a1.43,1.43,0,0,1-1.4,1.4c-2,.3-3.6-1-3.2-2.7.7-3.3-3.3-6.9.7-9.7.9-.6,1,.8,1.2,1.6A1.58,1.58,0,0,1,382.1,385.1Z" transform="translate(-154.83 -84.06)"/><path class="cls-21" d="M225.1,392.8c-3.1,1.2-6.1,1.9-8-1.9-2.2-2.7-1.2-5.3.3-7.9,3,.8,1.6,3.2,1.8,5,.4,3.3,1.7,4.6,4.9,3.1A1.45,1.45,0,0,1,225.1,392.8Z" transform="translate(-154.83 -84.06)"/><path class="cls-11" d="M430.9,356.2c1.9-1.1.3-3.6,2.6-5.4a47.82,47.82,0,0,1,.2,14.1c-.1.6-1.1.1-1.7-.2a3.41,3.41,0,0,1-1.1-1.8c-.2-1.8-.5-3.7-.6-5.6A2.38,2.38,0,0,1,430.9,356.2Z" transform="translate(-154.83 -84.06)"/><path class="cls-14" d="M368.1,357c-1.8,1.9-1,4.3-1.3,6.5-.1.9-.4,1.8-1.3,1.8s-1.3-.9-1.3-1.8c0-2.3-.2-4.6,0-6.8.3-2.4,1.8-1,2.9-.7C367.4,356.3,368,356.4,368.1,357Z" transform="translate(-154.83 -84.06)"/><path class="cls-15" d="M214.9,390.9c-2.7,2.6-5.5,4.8-8.9.9-.3-.9.3-1.2,1-1.5,4.8-.4,4.8-.4,3.6-5.8.3-.8.7-1.2,1.6-.8.9.7,1.8,1.5,2.7,2.2A3.42,3.42,0,0,1,214.9,390.9Z" transform="translate(-154.83 -84.06)"/><path class="cls-17" d="M368.1,357c-.4-.3-.7-.7-1.1-1,1.8-1.4,3.6-1.6,5.4,0s2.1,4.8.5,9.5C370.1,363.2,374.2,357,368.1,357Z" transform="translate(-154.83 -84.06)"/><path class="cls-6" d="M267,383.9c2.2-.1,4.5-2.2,6.4.1,2.2,2.6,1.8,5.6,1.3,9-4-1.4,1.1-10.4-6.8-7.1C267.1,385.5,266.4,385,267,383.9Z" transform="translate(-154.83 -84.06)"/><path class="cls-22" d="M452,384.1c3-2.4,5-.9,5.8,2.1.6,2.2.1,4.6.1,7.5-3.9-2.3.9-9.4-6-8.8-.2-.2-.3-.4-.2-.6S451.9,384.1,452,384.1Z" transform="translate(-154.83 -84.06)"/><path class="cls-22" d="M228.1,137.9a8.12,8.12,0,0,1,4.7,4.4c.4.8-.1,1.9-1,1.8-2.7-.3-4-2.5-5.3-4.5C226.1,138.6,227,138.1,228.1,137.9Z" transform="translate(-154.83 -84.06)"/><path class="cls-23" d="M187,364.7a21.81,21.81,0,0,1,0-12.4C188.6,356.4,188.3,360.5,187,364.7Z" transform="translate(-154.83 -84.06)"/><path class="cls-24" d="M253,363.1c-1.9-.3-3.4,1.4-5.3.8-1-.3-2.1-.7-2.1-1.8,0-1.4,1.4-.9,2.3-1.2,1.9-.6,5.6,1.7,5.1-3C255,359.7,253.6,361.4,253,363.1Z" transform="translate(-154.83 -84.06)"/><path class="cls-25" d="M313,384.9a2.44,2.44,0,0,1,1.1-3.6c1.2-.6.9,1.5,1.9,1.8a1.23,1.23,0,0,1,0,1.9h0c-.7,2.3-1.1,4.7.2,6.9.8.1,1.8-.4,2.2.6.2.6-.5,1.1-1.1,1.3-2,.4-3.1-.5-3.5-2.4C312.3,389.3,313.6,387,313,384.9Z" transform="translate(-154.83 -84.06)"/><path class="cls-4" d="M469,365c-.3,0-.7-.1-1-.1-1.7-1.8-.7-4.1-1.1-6.1,0-.2-.1-.5-.1-.7-1.2-2-2.6-.6-3.9-.3-2.6-1.6-2.6-3.6-.9-5.8,1,1.3.7,4.3,4,3.1,1.2-.5,2.4.5,3.1,1.8A15.89,15.89,0,0,1,469,365Z" transform="translate(-154.83 -84.06)"/><path class="cls-26" d="M339.9,364.2c-1.7-2.6-.3-5.8-1.5-8.5-.2-.4.4-2.4,1.8-2.5.8,0,.8.9.9,1.5.3.7,1.5,1.1.8,2.2-1.6,1.8-.5,4.1-.9,6.1C340.7,363.4,340.5,364,339.9,364.2Z" transform="translate(-154.83 -84.06)"/><path class="cls-9" d="M178,363.9c-1.7,2.7-4.2,2.5-6.4,1.1-2.7-1.7-3.5-4.3-1.7-7.2a3.89,3.89,0,0,1,1.8,2c.8,2.9,3.2,2.6,5.4,2.7C177.8,362.7,178.4,363,178,363.9Z" transform="translate(-154.83 -84.06)"/><path class="cls-27" d="M416,355.8v.9c-3.3,2.1-.7,5.9-2.7,8.9-2.1-3.1-1.3-6.3-.9-9.1C412.5,354.2,414.8,356.8,416,355.8Z" transform="translate(-154.83 -84.06)"/><path class="cls-21" d="M402,388.9a16.7,16.7,0,0,1-3,7.3c-.9-2.7-2.5-4.7-1-7.3l-.1.1c1.9,2.4,2.1-.7,3.1-1S402.4,387.9,402,388.9Z" transform="translate(-154.83 -84.06)"/><path class="cls-28" d="M299,390.9a6.46,6.46,0,0,0-1.9.4c-1.8.7-3.5,1.1-5.1-.2a1.73,1.73,0,0,1-.5-1.2c1.3-1.5,3-.6,4.6-.8,1.2-.1,2.3,0,3.2-1C300.5,389.1,299.3,390,299,390.9Z" transform="translate(-154.83 -84.06)"/><path class="cls-21" d="M254,388.5c1.8,3,3.8,5.4,7.1,1.5.5-.5.7-1.5,1.8-.9-.3,4.2-2.9,5.4-6.5,4.5C253.8,393,252.4,391.3,254,388.5Z" transform="translate(-154.83 -84.06)"/><path class="cls-4" d="M422.3,392.9c.3-1,.5-2,.8-3a1.85,1.85,0,0,1,1.2-1.5,2.12,2.12,0,0,1,1.9.4,1.06,1.06,0,0,1-.2,1.2c-1.6,3.1,1.8,1.9,2.5,2.5,2.4,1.6,3.2,2.7.5,4.6a2.84,2.84,0,0,1-1.7-.9C426.2,394.2,423.1,395.3,422.3,392.9Z" transform="translate(-154.83 -84.06)"/><path class="cls-23" d="M295,356.7c-3.3,2.1-.8,5.9-2.7,8.9-2.3-3-1.4-6.2-1-9,.2-2.1,2.6.2,3.8-.6l.3.4Z" transform="translate(-154.83 -84.06)"/><path class="cls-10" d="M226.1,357.2c-1.5,2.4-.2,5.5-1.8,8.5-2.2-3.3-1.2-6.4-1.1-9.3.1-1.8,1.9-.3,2.8-.4C226.5,356.4,226.5,356.8,226.1,357.2Z" transform="translate(-154.83 -84.06)"/><path class="cls-29" d="M389.9,385.9c-.4,2.4-.7,4.8-1.1,7.1-1.3-3.1-3.4-6.2.1-9.1C389.5,384.5,390.6,384.8,389.9,385.9Z" transform="translate(-154.83 -84.06)"/><path class="cls-14" d="M452,384.1a2,2,0,0,1-.1.8c-1.9,2.4.1,5.8-2.3,8.8-1.7-3.3-1.1-6.3-.8-9.2C449.1,382.4,450.9,384.2,452,384.1Z" transform="translate(-154.83 -84.06)"/><path class="cls-29" d="M194,357.8c-.3,2.4-.7,4.8-1,7.2-1.3-3.1-3.4-6.1.1-9.1C193.5,356.5,194.6,356.8,194,357.8Z" transform="translate(-154.83 -84.06)"/><path class="cls-29" d="M305.9,357.8c-.3,2.4-.7,4.8-1,7.1-1.3-3.1-3.4-6.1.1-9.1C305.5,356.5,306.6,356.8,305.9,357.8Z" transform="translate(-154.83 -84.06)"/><path class="cls-30" d="M444.9,393.3c-1.5-3.3-1-6.6-.1-9.8A10.61,10.61,0,0,1,444.9,393.3Z" transform="translate(-154.83 -84.06)"/><path class="cls-26" d="M245,134.3c-.3,1.5.4,3.7-1.8,3.5-2-.2-1.3-2.3-1.4-3.6s-.4-3.1,1.4-3.1C245.5,131.1,244.6,133.2,245,134.3Z" transform="translate(-154.83 -84.06)"/><path class="cls-3" d="M323.1,393c-2.6-1.7-2.8-6.6-.4-9.8C324.9,386.3,324.5,389.6,323.1,393Z" transform="translate(-154.83 -84.06)"/><path class="cls-22" d="M166.2,352.7c1.2,3.1.4,6.2.6,9.4.1,1.1.3,2.7-.9,3.1-1.6.5-2.1-1.1-2.8-2.2-.5-.7,0-1.3.4-1.8a10.63,10.63,0,0,0,.9-1.1C165.3,357.7,163.7,354.7,166.2,352.7Z" transform="translate(-154.83 -84.06)"/><path class="cls-21" d="M423.9,389l-.9.9c-2.2-1.1-2.6-2.9-1.5-4.8,1.5-2.6,4-2.3,6.5-1.9a2.09,2.09,0,0,1-1,2.4C425.3,386.2,424.7,387.7,423.9,389Z" transform="translate(-154.83 -84.06)"/><path class="cls-28" d="M324,363c-.5.1-1,.2-1.4.3-1.9.7-4.6,1.4-4.9-1.1-.3-2.2,2.6-.8,4-1.2.9-.2,2-.1,2.6-1A1.79,1.79,0,0,1,324,363Z" transform="translate(-154.83 -84.06)"/><path class="cls-22" d="M285.2,383.9c2.8,2.9,2.1,6,.9,9.9-2.5-3,.4-7.1-3-9C283,382.9,284.1,383.5,285.2,383.9Z" transform="translate(-154.83 -84.06)"/><path class="cls-22" d="M369.1,387.3c0,1.9.6,3.9-1.1,5.8-1.1-3.1-1.6-6.3-.3-9.6.4.2.8.3,1.2.5C369.8,385.1,369.5,386.2,369.1,387.3Z" transform="translate(-154.83 -84.06)"/><path class="cls-24" d="M221,360.9a17.7,17.7,0,0,1-.1,2.3c-1.7,1-3.2,2.2-5.4,1.7-1.9-.9-4-1.6-2.3-4.4C215.9,359.2,218.5,359.1,221,360.9Z" transform="translate(-154.83 -84.06)"/><path class="cls-31" d="M346,383.9c3.1,2.8,2,6,1,10.5-2.1-3.6-.3-6.9-2.2-9.3C344.7,384.1,344.9,383.6,346,383.9Z" transform="translate(-154.83 -84.06)"/><path class="cls-15" d="M402,364.9c-3.8-2.6-1.3-6.2-1.5-9.4,2.8,2.2.5,5.9,2.7,8.2A1.37,1.37,0,0,1,402,364.9Z" transform="translate(-154.83 -84.06)"/><path class="cls-3" d="M347.6,354.5c1.8,4.3,1.5,7.4.1,10.5A18.46,18.46,0,0,1,347.6,354.5Z" transform="translate(-154.83 -84.06)"/><path class="cls-32" d="M225.1,392.8c-.3-.6-.6-1.1-.9-1.7,1.7-2.2-.1-5.2,2-8.5C226.3,386.8,228.5,390,225.1,392.8Z" transform="translate(-154.83 -84.06)"/><path class="cls-31" d="M395.2,355.8c3.9,3.9,3.9,5.5-.1,9.2-.9.6-1.7.6-2.3-.5,1.3-2.5,2.1-5.1.9-8C393.9,355.8,394.3,355.4,395.2,355.8Z" transform="translate(-154.83 -84.06)"/><path class="cls-7" d="M224.7,153c1.3,0,2.8,0,2.6,1.5-.3,2.2-2.6,1.5-4,1.9-1,.3-2.3,0-2.2-1.2C221.2,152.9,223.3,153.3,224.7,153Z" transform="translate(-154.83 -84.06)"/><path class="cls-9" d="M361,360c1.7,2.3.1,3.9-1.5,5-2.3,1.5-4.6,1.3-6.4-1-.5-.9.1-1.2.8-1.5,2.5.2,4.8-.3,6.5-2.2C360.5,360.1,360.7,360.1,361,360Z" transform="translate(-154.83 -84.06)"/><path class="cls-33" d="M267,383.9c.3.7.6,1.3.9,2-.6,2.4.5,5.1-1.4,7.2C266.1,390,264.3,386.8,267,383.9Z" transform="translate(-154.83 -84.06)"/><path class="cls-23" d="M311,356c3.2,2.7,2,5.9.8,9.1-1.7-2.5-.2-5.7-1.9-8.2A2.44,2.44,0,0,1,311,356Z" transform="translate(-154.83 -84.06)"/><path class="cls-22" d="M230.2,383.1l.9.6c.4.7,1.6,1.1,1.1,2.3-1.4,2.1,2.2,5.8-2.2,6.9C228.8,389.7,228.2,386.4,230.2,383.1Z" transform="translate(-154.83 -84.06)"/><path class="cls-21" d="M268.8,362c2,3,4.4,1.9,7.5-.2-1,3.5-2.9,4.4-5.1,3.9-1.8-.4-4.6-.6-3.5-3.9C268.2,361.4,268.5,361.5,268.8,362Z" transform="translate(-154.83 -84.06)"/><path class="cls-23" d="M199,356c3.2,2.7,2,5.9.8,9.1-1.7-2.5-.2-5.7-1.9-8.2A3.13,3.13,0,0,1,199,356Z" transform="translate(-154.83 -84.06)"/><path class="cls-14" d="M362,385c3.8,2.4,3.8,4.2,0,7.9a2,2,0,0,1-1.4-1.4,39.44,39.44,0,0,1,.9-6A1.21,1.21,0,0,1,362,385Z" transform="translate(-154.83 -84.06)"/><path class="cls-19" d="M427,384.9c.3-.6.7-1.2,1-1.8.6-.8,1.8-1.1,1.7-.1-.4,2.6,1.7,6.9-3.7,6.9v-1A8.46,8.46,0,0,1,427,384.9Z" transform="translate(-154.83 -84.06)"/><path class="cls-31" d="M295,356.7v-.8c2.7-1.8,4.2-.8,5,2-1.3,2.2,1.2,4.9-1,7-1.4-1.4-.8-3.2-.8-4.7C298.3,357.8,297.1,356.9,295,356.7Z" transform="translate(-154.83 -84.06)"/><path class="cls-25" d="M431.9,362.8c0,.6.1,1.3.1,1.9-5,2-6.6,1.3-7.9-3.8a1.68,1.68,0,0,1,1.9-.4C427.6,362.2,429.8,362.4,431.9,362.8Z" transform="translate(-154.83 -84.06)"/><path class="cls-34" d="M280,385.9c-1.3,2.2,1.8,5.7-2,7.2-.8-3.2-2.7-6.6,1.1-9.2v.1C279.5,384.5,280.6,384.8,280,385.9Z" transform="translate(-154.83 -84.06)"/><path class="cls-35" d="M340.9,385.8c-1.2,2.2,1.6,5.6-2,7.2-.8-3.2-2.7-6.5,1.1-9.1h0C340.5,384.5,341.6,384.7,340.9,385.8Z" transform="translate(-154.83 -84.06)"/><path class="cls-27" d="M237.9,357c.4,0,.9-.1,1.3-.1,2.1,2.8,3.5,5.5-.2,8.1-1.5-2.2-.7-4.7-.9-7A2,2,0,0,1,237.9,357Z" transform="translate(-154.83 -84.06)"/><path class="cls-36" d="M457.7,363.8l.3-.9c-.1-2.6-.6-5.1-.6-7.6a2.11,2.11,0,0,1,.5-1.3c.6-1.1.9-2.4,2.1-3a21,21,0,0,1-.1,14C459.2,364.6,458.5,364.2,457.7,363.8Z" transform="translate(-154.83 -84.06)"/><path class="cls-18" d="M433.9,387.7c-.3-.9-3.5-1.4-.4-2.7a4.06,4.06,0,0,1,4.1-.7c1.1.7,1.8,1.5,1.5,2.9C437.6,389.1,435.9,389.7,433.9,387.7Z" transform="translate(-154.83 -84.06)"/><path class="cls-37" d="M326.9,392c-.6-.7-1.2-1.5-1.8-2.2a1.69,1.69,0,0,1,0-2.7c.9-.9,1.2-2.5,3-2.1l.6.6a7,7,0,0,1,.2,5.5C328.4,391.8,327.9,392.4,326.9,392Z" transform="translate(-154.83 -84.06)"/><path class="cls-34" d="M462,352c-.1,2-.3,4,.9,5.8-1.8,2.1,1,5.5-2,7.3-.9-3.9-.2-7.8-.4-11.7,0-.9.4-1.6,1.5-1.4Z" transform="translate(-154.83 -84.06)"/><path class="cls-2" d="M409.1,355.7a50.83,50.83,0,0,0,.3,6.8c.7,3.7-1.6,2.5-3.4,2.3-.3-.2-.5-.4-.3-.5s.2-.2.4-.2a10.63,10.63,0,0,1,.9-1.1C408.3,360.7,404.9,357.1,409.1,355.7Z" transform="translate(-154.83 -84.06)"/><path class="cls-38" d="M497.1,351.7c0,4.4-.1,8.8-.1,13.3-.4.5-.7.4-1.1,0a20.72,20.72,0,0,1,.2-13.9A8.79,8.79,0,0,0,497.1,351.7Z" transform="translate(-154.83 -84.06)"/><path class="cls-39" d="M214.9,390.9c0-1.6,0-3.3.1-4.9.7-1.1.9-2.6,2.4-3-.1,2.6-.2,5.3-.3,7.9C216.3,392,215.6,391,214.9,390.9Z" transform="translate(-154.83 -84.06)"/><path class="cls-25" d="M461.9,352c-2.2,4.2-.4,8.8-1,13.1a3.75,3.75,0,0,1-1-.1c0-4.7.1-9.3.1-14C460.9,351,461.7,350.9,461.9,352Z" transform="translate(-154.83 -84.06)"/><path class="cls-14" d="M416.9,384.1c-.4.3-.7.6-1.1.9-2,.6-4,3.4-6,0C411.9,382.5,414.2,381.8,416.9,384.1Z" transform="translate(-154.83 -84.06)"/><path class="cls-40" d="M409.8,385c2,1.8,4-1,6,0,.7,1.8-1,2-1.9,2.7a1.84,1.84,0,0,1-2.9.2C410.8,386.9,408.1,386.8,409.8,385Z" transform="translate(-154.83 -84.06)"/><path class="cls-21" d="M398,388.9c-3.2.5-2-4.4-5-4a.82.82,0,0,1,.1-1.2c4.9-1.3,4.2,2.6,4.9,5.2Z" transform="translate(-154.83 -84.06)"/><path class="cls-36" d="M295.9,309c.1,5,.2,9.9.3,14.9C294,319,294.7,314,295.9,309Z" transform="translate(-154.83 -84.06)"/><path class="cls-41" d="M494,364v-7c.3-2-.8-4.3,1.1-6a43.2,43.2,0,0,1-.1,13.9C493.5,365.8,494.2,364.4,494,364Z" transform="translate(-154.83 -84.06)"/><path class="cls-12" d="M422.3,392.9c1.5,1.8,5.5-1.1,5.7,3.1-1.6,1.4-3.4,1-5.2.7-1.7-1-1.9-2.3-.6-3.8Z" transform="translate(-154.83 -84.06)"/><path class="cls-31" d="M213.1,361.1c0,1.9,1.4,2.5,2.9,3,0,1.8-1,1.3-2,.9a3,3,0,0,1-2-1.8,8.63,8.63,0,0,1,0-5.5l1.9-1.9a1.07,1.07,0,0,1,1.5.6c.2,1.1-.6,1.9-.9,2.8a8.79,8.79,0,0,1-.6,1A6.47,6.47,0,0,0,213.1,361.1Z" transform="translate(-154.83 -84.06)"/><path class="cls-19" d="M335.2,385.6c2,3.2.9,5.5-2,7.4-1,.5-1.8.6-2.4-.5.6-2,2.1-3.6,2.7-5.7A2.69,2.69,0,0,1,335.2,385.6Z" transform="translate(-154.83 -84.06)"/><path class="cls-15" d="M213.1,361.1a4.87,4.87,0,0,0-.1-1.2c1-1.2,2.6-1,3.8-1.6.5-.6.7-1.4,1.3-1.8a1,1,0,0,1,1,.3,3.49,3.49,0,0,1,1.7,4C218.4,361,215.7,361,213.1,361.1Z" transform="translate(-154.83 -84.06)"/><path class="cls-37" d="M422.9,396.1c1.7,0,3.4-.1,5.1-.1.3.4.7.7,1,1.1-2.7,1.4-5.3,1.7-7.9-.2C421.6,396.3,422.3,396.3,422.9,396.1Z" transform="translate(-154.83 -84.06)"/><path class="cls-42" d="M495,364.9c0-4.6,0-9.3.1-13.9a3.4,3.4,0,0,1,1,.1c-.1,4.6-.1,9.3-.2,13.9A2.77,2.77,0,0,1,495,364.9Z" transform="translate(-154.83 -84.06)"/><path class="cls-20" d="M487,357.1c-.3-.4-.7-.7-1-1.1,2.7-2,5.1-1.5,7.1,1C491.1,358.9,489,356,487,357.1Z" transform="translate(-154.83 -84.06)"/><path class="cls-43" d="M269.1,356c2.6-2,4.7-1.3,7.2,1.5-2.6-.2-4.4-.3-6.3-.5A1.07,1.07,0,0,1,269.1,356Z" transform="translate(-154.83 -84.06)"/><path class="cls-21" d="M411,387.9c1-.1,2-.1,2.9-.2a4.1,4.1,0,0,0,.1,1.1c-.1,1.2-.8,2.1-1,3.3-.7.3-1.5.6-2.2.9C408.5,391.2,409.6,389.6,411,387.9Z" transform="translate(-154.83 -84.06)"/><path class="cls-7" d="M438.8,386.7c-.3-.6-.6-1.1-.9-1.7-.2-1,.1-1.5,1.2-1.2l1,1a14.28,14.28,0,0,1,1.5,6.7,2.1,2.1,0,0,1-.7,1.4c-.6-.1-1.3-.1-1.9-.2s-1.2-.4-1.4-1.1a5.58,5.58,0,0,1,.6-3.1Z" transform="translate(-154.83 -84.06)"/><path class="cls-13" d="M393,364.1l2.1.9c-3.1,1.8-5.4,1-7-2,.3-.6.6-1.2,1.3-1.3A3.9,3.9,0,0,1,393,364.1Z" transform="translate(-154.83 -84.06)"/><path class="cls-3" d="M178,363.9c-.3-.3-.5-.6-.8-.9-1.1-1.7-.8-3.6-.6-5.5.1-.2.3-.3.4-.5C181.3,358.7,180.2,361.2,178,363.9Z" transform="translate(-154.83 -84.06)"/><path class="cls-29" d="M299,364.9c.4-2.3-.9-4.9,1-7,.4,2.4,1.6,4.9-.2,7.3a.3.3,0,0,1-.4,0C299.2,365.2,299.1,365,299,364.9Z" transform="translate(-154.83 -84.06)"/><path class="cls-31" d="M353.9,363c-.3.3-.6.7-.9,1-2.2-2.7-3.2-5.2,1-7,.1.2.3.3.4.5A8.73,8.73,0,0,1,353.9,363Z" transform="translate(-154.83 -84.06)"/><path class="cls-2" d="M360.8,391.8l1.1,1.1c-2.9,1.6-5.3,1.2-7.1-1.7-.5-.9,0-1.3.8-1.5A8.65,8.65,0,0,1,360.8,391.8Z" transform="translate(-154.83 -84.06)"/><path class="cls-17" d="M355.9,390c-.3.4-.7.8-1,1.2-1.6-3.1-1.6-5.7,2.1-7.2a2.23,2.23,0,0,1,.6,1.3C357.6,387,357.5,388.8,355.9,390Z" transform="translate(-154.83 -84.06)"/><path class="cls-43" d="M331,356.9a15.38,15.38,0,0,0-1.3-1.2c2.5-1.5,4.4-1,6.4,1.3C334,358.2,332.6,356.5,331,356.9Z" transform="translate(-154.83 -84.06)"/><path class="cls-14" d="M402,388.9l-.9-.9c-.1-2,0-3.8,2.5-4.8C404.2,385.6,403.2,387.3,402,388.9Z" transform="translate(-154.83 -84.06)"/><path class="cls-44" d="M435.8,158.1a14.92,14.92,0,0,0,.2-2.1h.9a30.3,30.3,0,0,1,0,12H436a14.92,14.92,0,0,1-.2-2.1A20.47,20.47,0,0,1,435.8,158.1Z" transform="translate(-154.83 -84.06)"/><path class="cls-45" d="M437,168V156A15.6,15.6,0,0,1,437,168Z" transform="translate(-154.83 -84.06)"/><path class="cls-35" d="M389.1,361.8a11,11,0,0,1-1,1.1c-1.6-2.9-.8-5.3,1.9-7.1.9-.4,1.3.1,1.5.9C390.9,358.6,390.4,360.4,389.1,361.8Z" transform="translate(-154.83 -84.06)"/><path class="cls-15" d="M213.9,365c.7-.3,1.4-.6,2-.9,1.7-.3,3.3-.7,5-1C219.2,366.1,216.9,366.6,213.9,365Z" transform="translate(-154.83 -84.06)"/><path class="cls-5" d="M262.9,389l-1.8.9a6.2,6.2,0,0,0-1.2-4.9c.1-.7.7-.8,1.1-1C263.3,385,263.2,387,262.9,389Z" transform="translate(-154.83 -84.06)"/><path class="cls-15" d="M370,333c-1.5-3.7-1.9-7.4.3-11C370.2,325.7,370.1,329.3,370,333Z" transform="translate(-154.83 -84.06)"/><path class="cls-46" d="M164.9,362c-.3,0-.5-.1-.8-.1-1-.5-1.8-1.1-1-2.4,1.3-2.4-.4-5.2,1-7.5h1A18.89,18.89,0,0,1,164.9,362Z" transform="translate(-154.83 -84.06)"/><path class="cls-47" d="M279.1,383.9c-2.1,2.8-.6,6.1-1.1,9.2a2.77,2.77,0,0,1-.9-.1c-.7-3.3-1-6.7.2-10A1.67,1.67,0,0,1,279.1,383.9Z" transform="translate(-154.83 -84.06)"/><path class="cls-6" d="M199,356c-.3.3-.7.6-1,.9l-4,.9c-.3-.6-.6-1.3-.9-1.9C195,356,197.1,353.5,199,356Z" transform="translate(-154.83 -84.06)"/><path class="cls-48" d="M338,392.9c-1.5-3.3-1.8-6.6.2-9.9C338.5,386.3,338.9,389.6,338,392.9Z" transform="translate(-154.83 -84.06)"/><path class="cls-49" d="M338,392.9c.1-3.3.2-6.6.2-9.9a1.84,1.84,0,0,1,1.8.8c-2.1,2.8-.5,6.1-1.1,9.1A1.39,1.39,0,0,1,338,392.9Z" transform="translate(-154.83 -84.06)"/><path class="cls-50" d="M269.1,356c.3.3.6.7.9,1a6.61,6.61,0,0,0-1.2,4.9c-.4,0-.7-.1-1.1-.1C267.6,359.7,265.6,357.2,269.1,356Z" transform="translate(-154.83 -84.06)"/><path class="cls-6" d="M311,356a9.43,9.43,0,0,0-1,1l-4,.9c-.3-.6-.6-1.3-.9-1.9C307,356,309,353.5,311,356Z" transform="translate(-154.83 -84.06)"/><path class="cls-51" d="M357,384.9v-1c2-1.5,3.9-2.2,5,1l.1-.1C360.3,386.2,358.7,386.5,357,384.9Z" transform="translate(-154.83 -84.06)"/><path class="cls-4" d="M425.8,361h-1.7c-.4-2-.2-3.9,1.9-5a1.7,1.7,0,0,1,1.4,1.4C427.4,358.8,427.2,360.2,425.8,361Z" transform="translate(-154.83 -84.06)"/><path class="cls-25" d="M163.1,359.9c.4.7.7,1.3,1.1,2l-1.1,1.1-2.1-2.7c-.5-.7-1.1-1.6-.1-2,.5-.2,1.4.6,2.1.9.4.1.5.3.4.4S163.2,359.9,163.1,359.9Z" transform="translate(-154.83 -84.06)"/><path class="cls-52" d="M323.1,393c-.1-3.3-.3-6.6-.4-9.8.4.3.9.5,1.3.8a19.55,19.55,0,0,1,0,9Z" transform="translate(-154.83 -84.06)"/><path class="cls-22" d="M369.1,387.3c0-1.1-.1-2.2-.1-3.3,1.4-.3,2.8-2,4.5.3C372.1,385.4,369.7,385.2,369.1,387.3Z" transform="translate(-154.83 -84.06)"/><path class="cls-53" d="M164.9,362c0-3.3.1-6.7.1-10l1.1.8C165.4,355.7,167.1,359.1,164.9,362Z" transform="translate(-154.83 -84.06)"/><path class="cls-54" d="M231.3,355c-.1,3.3-.2,6.6-.3,10C229.6,361.6,229.2,358.3,231.3,355Z" transform="translate(-154.83 -84.06)"/><path class="cls-54" d="M447.7,384.1v7.7A11.32,11.32,0,0,1,447.7,384.1Z" transform="translate(-154.83 -84.06)"/><path class="cls-43" d="M317,357c1.6-3,3.3-3.3,4.9,0l-.6.6a3.65,3.65,0,0,1-4.3-.6Z" transform="translate(-154.83 -84.06)"/><path class="cls-6" d="M340.9,385.8c-.3-.6-.6-1.3-.9-1.9,2,0,4-2.3,6,0l-1.2,1.2A6.07,6.07,0,0,0,340.9,385.8Z" transform="translate(-154.83 -84.06)"/><path class="cls-54" d="M229,392.9a11,11,0,0,1,.1-10A22.49,22.49,0,0,1,229,392.9Z" transform="translate(-154.83 -84.06)"/><path class="cls-54" d="M277.2,383c-.1,3.3-.1,6.7-.2,10C275.6,389.6,275.2,386.3,277.2,383Z" transform="translate(-154.83 -84.06)"/><path class="cls-33" d="M261,384c-.4.3-.7.7-1.1,1-1.3,0-2.6-.1-3.9-.1-.9.4-1.1-.1-.9-.9A4.8,4.8,0,0,1,261,384Z" transform="translate(-154.83 -84.06)"/><path class="cls-55" d="M229,392.9c0-3.3.1-6.6.1-10,.4.1.7.1,1.1.2l-.3,9.9A2.77,2.77,0,0,1,229,392.9Z" transform="translate(-154.83 -84.06)"/><path class="cls-56" d="M409.1,355.7c-2.5,1.9.2,5.3-2.2,7.2a3.4,3.4,0,0,0-.1-1c-.3-2.3-1-4.7.3-6.9C407.9,355,408.6,354.9,409.1,355.7Z" transform="translate(-154.83 -84.06)"/><path class="cls-43" d="M219.3,356.8c-.5.1-1,.1-1.5.2a1.8,1.8,0,0,1-2.8-.2c-.4-.4-.8-.7-1.2-1.1C215.9,354.5,217.9,354.1,219.3,356.8Z" transform="translate(-154.83 -84.06)"/><path class="cls-54" d="M324,392.9v-9c1.2.8.9,2,1,3.1v2.7C324.9,390.9,325.2,392.2,324,392.9Z" transform="translate(-154.83 -84.06)"/><path class="cls-57" d="M439.1,383.8l-1.2,1.2h-4.3C434.9,381.9,436.9,382.5,439.1,383.8Z" transform="translate(-154.83 -84.06)"/><path class="cls-51" d="M328,385c1.1-3.3,3.2-2.1,5.2-1.2a2.65,2.65,0,0,1-1.5,1.9,3.61,3.61,0,0,1-3.7-.7Z" transform="translate(-154.83 -84.06)"/><path class="cls-20" d="M171.8,355.8c2.1-1,4.1-2.1,5.2,1.2l.1-.1a3.54,3.54,0,0,1-3.8.7A2.49,2.49,0,0,1,171.8,355.8Z" transform="translate(-154.83 -84.06)"/><path class="cls-43" d="M247,356.9c-.4-.4-.8-.7-1.2-1.1,2.1-1.2,4.1-1.8,5.4,1-.5.1-1,.1-1.4.2A1.86,1.86,0,0,1,247,356.9Z" transform="translate(-154.83 -84.06)"/><path class="cls-31" d="M432.9,393c-1.5-1.3-1.5-2.7-.1-4.1.9-.5,1.4,0,1.9.6a4.83,4.83,0,0,1,.7,2.9A1.58,1.58,0,0,1,432.9,393Z" transform="translate(-154.83 -84.06)"/><path class="cls-35" d="M427.1,357a11.41,11.41,0,0,1-1.1-1.1c1.7-1.7,3.4-.8,5,.2v.7C429.7,358,428.4,358.2,427.1,357Z" transform="translate(-154.83 -84.06)"/><path class="cls-6" d="M280,385.9c-.3-.7-.6-1.3-.9-2,2-.1,4.1-2.2,6.1-.1a20,20,0,0,0-2.1,1C282,385.2,281,385.5,280,385.9Z" transform="translate(-154.83 -84.06)"/><path class="cls-3" d="M206.9,391c-.3.3-.5.6-.8.9-1.9-1.7-2.1-3.7-1-5.9.9-.3,1.3.3,1.7.9C207.2,388.2,208,389.6,206.9,391Z" transform="translate(-154.83 -84.06)"/><path class="cls-21" d="M201.1,390.2a21.4,21.4,0,0,0-1-2.2c.7-1.3.2-3.3,2.5-4.1A9.73,9.73,0,0,1,201.1,390.2Z" transform="translate(-154.83 -84.06)"/><path class="cls-43" d="M297,383.9c-.4.4-.8.7-1.2,1.1a1.86,1.86,0,0,1-2.8-.1c-.4-.4-.8-.7-1.2-1.1C293.6,382.6,295.3,382.3,297,383.9Z" transform="translate(-154.83 -84.06)"/><path class="cls-25" d="M232.1,386.1c-.4-.8-.7-1.6-1.1-2.3,1.5.3,3-1.7,4.7,0C235.4,385.8,232.9,384.8,232.1,386.1Z" transform="translate(-154.83 -84.06)"/><path class="cls-51" d="M354,356.9c1.1-3.2,3.2-2.2,5.2-1.2a3,3,0,0,1-1.4,1.9,3.21,3.21,0,0,1-3.8-.7Z" transform="translate(-154.83 -84.06)"/><path class="cls-19" d="M477,360.8V360a4.57,4.57,0,0,1,1.7-1.4l.9-.6a3.81,3.81,0,0,1,1.3-.9c1.4,1,1.1,2.4,1,3.8C480.2,362.2,478.6,362.5,477,360.8Z" transform="translate(-154.83 -84.06)"/><path class="cls-21" d="M331,392.1a21.4,21.4,0,0,1,2.2,1c-2.4,1.6-4.5.9-6.3-1.1.4-.4.7-.8,1.1-1.2A2.37,2.37,0,0,1,331,392.1Z" transform="translate(-154.83 -84.06)"/><path class="cls-58" d="M323.9,359.1c-2.3.9-4.6,1.9-6.8-.2,1.3-1.5,3.7-.3,5-2h0A2.92,2.92,0,0,1,323.9,359.1Z" transform="translate(-154.83 -84.06)"/><path class="cls-14" d="M469,365v-8.1C470.2,359.6,470.7,362.3,469,365Z" transform="translate(-154.83 -84.06)"/><path class="cls-59" d="M477,360.8h4.9v2.3c-.6-.1-1.3-.1-1.9-.2-1.5-.3-3.6.8-4-1.8C476.3,361,476.6,360.9,477,360.8Z" transform="translate(-154.83 -84.06)"/><path class="cls-51" d="M282,357a12,12,0,0,0-1.2-1.1,4.09,4.09,0,0,1,5.3,0l-1.2,1.2A2.15,2.15,0,0,1,282,357Z" transform="translate(-154.83 -84.06)"/><path class="cls-51" d="M391,356.9l-1.1-1.1c1.7-1.4,3.5-1.3,5.3,0a12,12,0,0,1-1.2,1.1A2,2,0,0,1,391,356.9Z" transform="translate(-154.83 -84.06)"/><path class="cls-27" d="M339.9,364.2A12,12,0,0,0,341,363c.4,1.3,3.2.7,2.5,2C342.5,366.8,340.9,365.7,339.9,364.2Z" transform="translate(-154.83 -84.06)"/><path class="cls-60" d="M163.1,359.9a1.7,1.7,0,0,1-.1-.7c.6-2.4-.9-5.1,1.1-7.2C163.6,354.6,165.1,357.5,163.1,359.9Z" transform="translate(-154.83 -84.06)"/><path class="cls-43" d="M475.9,356.9c-.4-.4-.8-.7-1.2-1.1,1.8-1.2,3.5-1.4,5.2.2a2,2,0,0,1-1.3,1.6A2.33,2.33,0,0,1,475.9,356.9Z" transform="translate(-154.83 -84.06)"/><path class="cls-14" d="M432.9,393c.7-.3,1.3-.6,2-.9a1.8,1.8,0,0,1,2.8-.2c.4.3.8.5,1.2.8C437,393.2,435,395,432.9,393Z" transform="translate(-154.83 -84.06)"/><path class="cls-4" d="M434,389.9c-.4-.4-.8-.7-1.2-1.1a11.41,11.41,0,0,0,1.1-1.1c1.7.1,3.5.7,4.9-1v2.4C437.4,390.2,435.8,390.8,434,389.9Z" transform="translate(-154.83 -84.06)"/><path class="cls-61" d="M440.8,392.9a1.7,1.7,0,0,0,0-1,8.85,8.85,0,0,1,.2-6h1a10.51,10.51,0,0,1,0,7Z" transform="translate(-154.83 -84.06)"/><path class="cls-54" d="M442,392.9v-7A6,6,0,0,1,442,392.9Z" transform="translate(-154.83 -84.06)"/><path class="cls-54" d="M407.2,355l-.3,6.9C405.6,359.5,405.2,357.2,407.2,355Z" transform="translate(-154.83 -84.06)"/><path class="cls-62" d="M238.1,358c1.8,2.2.6,4.7.9,7h-.9c-1-2.2-.4-4.5-.3-6.8Z" transform="translate(-154.83 -84.06)"/><path class="cls-13" d="M393.1,383.7a4.87,4.87,0,0,1-.1,1.2c-1,.3-2,.6-3,1-.3-.6-.6-1.3-.9-1.9C390.4,384.1,391.6,382.1,393.1,383.7Z" transform="translate(-154.83 -84.06)"/><path class="cls-63" d="M439.5,364.5a1.3,1.3,0,0,1-1.4,1.1c-.8,0-1-.7-1-1.3,0-.8.6-1.1,1.3-1S439.3,363.9,439.5,364.5Z" transform="translate(-154.83 -84.06)"/><path class="cls-19" d="M206.2,387.2c-.4-.4-.7-.8-1.1-1.2a2.94,2.94,0,0,1,1.8-2.1c1-.6,1.9-.6,2.4.7A2.83,2.83,0,0,1,206.2,387.2Z" transform="translate(-154.83 -84.06)"/><path class="cls-54" d="M467.2,364.9c-2.1-2.1-1.6-4.4-.4-6.8l.3-.1A17.74,17.74,0,0,1,467.2,364.9Z" transform="translate(-154.83 -84.06)"/><path class="cls-16" d="M255.1,384.1l.9.9c-.7,1.2-1.4,2.3-2,3.5C253.3,386.7,252.3,384.9,255.1,384.1Z" transform="translate(-154.83 -84.06)"/><path class="cls-14" d="M467.2,364.9c0-2.3-.1-4.6-.1-6.9,1.6,2.2.5,4.6.8,6.9Z" transform="translate(-154.83 -84.06)"/><path class="cls-6" d="M307,384.8a10.59,10.59,0,0,0,1.2-1c1.4,0,3.1.8,2.3,2C309.3,387.6,308.4,384.6,307,384.8Z" transform="translate(-154.83 -84.06)"/><path class="cls-38" d="M406,364.1v.8c-1.3,1-2.6,1.4-4,.1.4-.4.8-.7,1.2-1.1C404.1,363.9,405,364,406,364.1Z" transform="translate(-154.83 -84.06)"/><path class="cls-25" d="M441,385.9c-.1,2-.1,4-.2,6-1.6-2.2-.6-4.7-.8-7.1C440.4,385.2,440.7,385.6,441,385.9Z" transform="translate(-154.83 -84.06)"/><path class="cls-51" d="M209,384.7l-2.1-.9a4.11,4.11,0,0,1,5.4-.1,12,12,0,0,1-1.2,1.1C210.3,385.5,209.6,385.5,209,384.7Z" transform="translate(-154.83 -84.06)"/><path class="cls-6" d="M316.3,391.9c-2.1-2.2-1.8-4.6-.2-6.9C315.9,387.3,315.6,389.6,316.3,391.9Z" transform="translate(-154.83 -84.06)"/><path class="cls-27" d="M422.9,396.1a1.84,1.84,0,0,1-1.8.8c-1.4-1.8-.9-3.1,1-4C422.3,394,421.9,395.2,422.9,396.1Z" transform="translate(-154.83 -84.06)"/><path class="cls-54" d="M237.7,358.1c.1,2.3.2,4.6.3,6.8C236.4,362.7,236.7,360.4,237.7,358.1Z" transform="translate(-154.83 -84.06)"/><path class="cls-27" d="M171.8,355.8c.4.4.8.7,1.2,1.1a3,3,0,0,1-2.2,3c-.3-.7-.6-1.5-.9-2.2C170.6,357.1,171.2,356.4,171.8,355.8Z" transform="translate(-154.83 -84.06)"/><path class="cls-64" d="M358,356.9c.4-.4.8-.7,1.2-1.1,1.9.9,2.1,2.4,1.8,4.2l.1-.1C358.7,360.2,358.4,358.5,358,356.9Z" transform="translate(-154.83 -84.06)"/><path class="cls-38" d="M451.2,353.2c-.4-.4-.8-.7-1.2-1.1a6,6,0,0,1,4.9,0c.3.9-.3,1.3-1,1.6A3,3,0,0,1,451.2,353.2Z" transform="translate(-154.83 -84.06)"/><path class="cls-64" d="M226.1,357.2c0-.4-.1-.8-.1-1.3.9-.9,2.3-1.5,2.6,0C229,357.6,227,356.7,226.1,357.2Z" transform="translate(-154.83 -84.06)"/><path class="cls-60" d="M313.1,390.7c-2.2-1.6-1.2-3.2,0-4.8A6.63,6.63,0,0,1,313.1,390.7Z" transform="translate(-154.83 -84.06)"/><path class="cls-6" d="M313.1,390.7v-4.8c0-.3-.1-.7-.1-1,1.8,1.9.8,4.2.9,6.3C313.6,391,313.4,390.9,313.1,390.7Z" transform="translate(-154.83 -84.06)"/><path class="cls-26" d="M453.7,353.2c.4-.4.8-.7,1.2-1.1,1.4,0,2.1,1.3,3,2a2.77,2.77,0,0,0-.1.9C455.7,356.1,454.4,355.3,453.7,353.2Z" transform="translate(-154.83 -84.06)"/><path class="cls-65" d="M462.3,391.1c.3.6.7,1,.7,1.3a.91.91,0,0,1-1.3.8,1.29,1.29,0,0,1-.4-1.2C461.3,391.7,461.9,391.5,462.3,391.1Z" transform="translate(-154.83 -84.06)"/><path class="cls-4" d="M382.1,385.1v-2.3c.9.4,2.7-.3,2.5,1.4C384.5,385.3,382.9,384.8,382.1,385.1Z" transform="translate(-154.83 -84.06)"/><path class="cls-11" d="M332,384.9a12,12,0,0,1,1.2-1.1,2.47,2.47,0,0,1,1.9,1.9c-.4.4-.7.9-1.1,1.3A2.34,2.34,0,0,1,332,384.9Z" transform="translate(-154.83 -84.06)"/><path class="cls-6" d="M316,385v-1.9c.9-.1,2.3-.4,2.4.6C318.6,385.5,316.9,384.7,316,385Z" transform="translate(-154.83 -84.06)"/><path class="cls-57" d="M342,356.9a19.45,19.45,0,0,1-.8-2.2c.9.4,2.3,0,2.5,1.1C343.9,357.1,342.7,356.8,342,356.9Z" transform="translate(-154.83 -84.06)"/><path class="cls-32" d="M478.9,357l1-1c.3.4.7.7,1,1.1-.3.6-.6,1.3-.9,1.9C479.1,358.7,478.5,358.1,478.9,357Z" transform="translate(-154.83 -84.06)"/><path class="cls-20" d="M259,356.9l-.9-2.1c.9.3,2.2-.1,2.5,1C260.9,357.1,259.7,356.8,259,356.9Z" transform="translate(-154.83 -84.06)"/><path class="cls-51" d="M207,356.9c-.3-.7-.6-1.4-.9-2.2.9.4,2.2,0,2.5,1.1C209,357.1,207.7,356.8,207,356.9Z" transform="translate(-154.83 -84.06)"/><path class="cls-16" d="M291.9,393h5.3A4.21,4.21,0,0,1,291.9,393Z" transform="translate(-154.83 -84.06)"/><path class="cls-15" d="M211.9,357.7v5.5A4.37,4.37,0,0,1,211.9,357.7Z" transform="translate(-154.83 -84.06)"/><path class="cls-66" d="M228,196c-3.5-2.2-5.1-5.3-3.7-9.4s5-4.9,8.9-4.7a20.85,20.85,0,0,0,2.5,0c5.5,0,5.5,0,3.3-5.1-3.7-8.7-2.4-16.8,3.8-23.7,5.9-6.5,13.7-9.2,22.2-6.2,5.5,1.9,5.4-1.3,5.7-4.6,1.5-12.7,6-24.1,14.9-33.5C298,95.7,321.7,90,343.1,99.5c12.4,5.5,22.2,14.1,28.3,26.3,1.9,3.9,4.3,5.6,8.8,5.8a32.08,32.08,0,0,1,30,25c3.6,14.9-2.1,29.7-14.5,37.4a11.92,11.92,0,0,1-6.5,2.3H233.4C231.6,196.5,229.8,196.9,228,196Z" transform="translate(-154.83 -84.06)"/><path class="cls-67" d="M391,196c7.4-4.9,14.1-10.5,17.1-19.3,7-19.9-6-43.6-29.5-43.6-3.9,0-5.9-1.2-7.6-4.7-9.6-19.9-26.1-30.3-47.5-32.1-12.9-1.1-24.9,3.3-35.4,11.1-.8.6-1.7,1-2.5,1.6,9.1-11.5,21.2-18.1,35.3-20.7,29.2-5.3,56,8.8,68.9,35.7,1.2,2.6,2.3,4.5,5.8,4.1,19.2-2.2,35,12.1,37.2,29.2,2.4,19.3-9,34.4-29,39C399.6,196.6,395.3,196.9,391,196Z" transform="translate(-154.83 -84.06)"/><path class="cls-31" d="M391,196c4.3.1,8.6.1,13,.2-1.6,1.4-3.5.8-5.3.8H233.3c-1.8,0-3.7.6-5.2-1Z" transform="translate(-154.83 -84.06)"/><path class="cls-68" d="M305.8,203.9a10.9,10.9,0,0,1,2.4-4.8h27.6c.5,2.3-.6,4.1-1.8,5.9-8.6,1.3-17.2.4-25.8.5A2.6,2.6,0,0,1,305.8,203.9Z" transform="translate(-154.83 -84.06)"/><path class="cls-38" d="M435.8,158.1V166A8.49,8.49,0,0,1,435.8,158.1Z" transform="translate(-154.83 -84.06)"/><path class="cls-69" d="M305.8,203.9c7.7,0,15.4,0,23.1.1,1.7,0,3.7-.6,5.1,1,.1.8.1,1.6,1,2h0c5.5,1.8,11.2.4,16.7.8,2.1.1,4.3,0,8,0-16.3,14.6-31.6,28.2-46.8,41.8-.3-.2-.6-.3-.9-.5,2.2-5.7,4.4-11.5,6.6-17.2,2.8-7.1,2.8-7.1-5-7.1-4,0-8-.1-12,0-3.8.1-4.2-1.4-2.8-4.5C301.3,214.9,303.5,209.4,305.8,203.9Z" transform="translate(-154.83 -84.06)"/><path class="cls-70" d="M335,207c7.9-2.2,15.9-.4,23.8,0Z" transform="translate(-154.83 -84.06)"/><path class="cls-28" d="M385.2,313c0,5.2-3.1,8.9-7.3,8.8-4.6-.1-7.7-3.8-7.8-9.2-.1-5,3.1-8.4,7.8-8.5C382.1,304.1,385.2,307.8,385.2,313Z" transform="translate(-154.83 -84.06)"/><path class="cls-28" d="M327.1,313c0,5-3.7,8.9-8.2,8.8-4.2-.1-7.9-4.5-7.8-9.2s3.7-8.5,8-8.5C323.6,304.1,327.1,307.9,327.1,313Z" transform="translate(-154.83 -84.06)"/><path class="cls-28" d="M339.9,313.1c-.1-5.3,3.1-8.9,7.9-9,4.3-.1,8.3,4.3,8.2,8.9s-3.8,8.6-7.9,8.8C343.5,321.9,340,318.2,339.9,313.1Z" transform="translate(-154.83 -84.06)"/><path class="cls-71" d="M361.8,239.9a2.68,2.68,0,0,1-2.5-3.1,2.71,2.71,0,0,1,5.4.4A2.68,2.68,0,0,1,361.8,239.9Z" transform="translate(-154.83 -84.06)"/><path class="cls-71" d="M271.4,211.1c.2.3.9.7.9,1.2.1.9-.5,1.6-1.4,1.4a2,2,0,0,1-1.3-1.2C269.6,211.7,270.1,211.1,271.4,211.1Z" transform="translate(-154.83 -84.06)"/><path class="cls-12" d="M453.7,353.2c1.3.9,2.4,2.1,4.1,1.7,1.8,2.6,1.6,5.3.2,8.1-.7-1.1-1.5-1-2.4-.3-2.6,1.8-5.2,1.6-6.9-1-1.6-2.4-1.2-5.1,1.1-7.2.5-.4,1-.9,1.5-1.3Z" transform="translate(-154.83 -84.06)"/><path class="cls-24" d="M282,357c1,0,2,0,3,.1,2,1.8,2.7,3.8.6,6a2.83,2.83,0,0,1-4.4-.1C279.3,360.7,279.7,358.6,282,357Z" transform="translate(-154.83 -84.06)"/><path class="cls-28" d="M247,356.9c.9,0,1.9.1,2.8.1a17.39,17.39,0,0,1,1.1,1.8c-1.9.9-3.9,1.2-5.7-.2C245.8,358.1,246.4,357.5,247,356.9Z" transform="translate(-154.83 -84.06)"/><path class="cls-72" d="M245.2,358.7c1.9.1,3.8.1,5.7.2C249,360.5,247.1,360.7,245.2,358.7Z" transform="translate(-154.83 -84.06)"/><path class="cls-66" d="M293,384.9c.9,0,1.9.1,2.8.1a18.58,18.58,0,0,1,1.1,1.9c-1.9.5-3.8,1.7-5.1-.9A13.07,13.07,0,0,0,293,384.9Z" transform="translate(-154.83 -84.06)"/><path class="cls-58" d="M291.9,385.9c1.4,1.8,3.3.9,5.1.9C295,388,293,389.6,291.9,385.9Z" transform="translate(-154.83 -84.06)"/><path class="cls-1" d="M322,356.9c-.5,3.5-3.1,1.7-5,2,0-.7-.1-1.3-.1-2Z" transform="translate(-154.83 -84.06)"/><path class="cls-12" d="M413,392.1c-2-1.8-.8-2.6,1-3.3.8.3,2.3-.4,2.2,1C416,391.5,414.4,391.9,413,392.1Z" transform="translate(-154.83 -84.06)"/><path class="cls-24" d="M476,361.1c1,1.4,3.1.3,4,1.8a3.56,3.56,0,0,1-5.2,0C473.3,361.5,474.7,361.1,476,361.1Z" transform="translate(-154.83 -84.06)"/><path class="cls-28" d="M478.9,357c.4.7.7,1.3,1.1,2l-.2-.2c-1.9.7-3.8,1.7-5-1a11,11,0,0,0,1.1-1C476.9,356.9,477.9,356.9,478.9,357Z" transform="translate(-154.83 -84.06)"/><path class="cls-42" d="M474.8,357.9c1.4,1.7,3.3.9,5,1-.5,1.5-1.8,1-2.8,1.2C476,359.5,473.3,360.8,474.8,357.9Z" transform="translate(-154.83 -84.06)"/><path class="cls-73" d="M427.1,357c1.3-.1,2.6-.1,3.9-.2,1.3,1.8,1.2,3.9.9,6-2.7,1.7-5,1.7-6.1-1.9C426.2,359.7,426.7,358.4,427.1,357Z" transform="translate(-154.83 -84.06)"/><path class="cls-18" d="M209,384.7c.7,0,1.4.1,2.1.1,2.2,1.4,2.7,3.4,1.4,5.5-1.5,2.5-3.6,1.4-5.6.6-.2-1.3-.4-2.5-.7-3.8A29.86,29.86,0,0,0,209,384.7Z" transform="translate(-154.83 -84.06)"/><path class="cls-1" d="M170.8,359.9a4.26,4.26,0,0,1,2.2-3c1.4,0,2.7,0,4.1.1.4,2,1.2,4,.1,6C173.8,364.7,171.4,364.2,170.8,359.9Z" transform="translate(-154.83 -84.06)"/><path class="cls-74" d="M427,384.9c1.1,1.7.9,3.1-1,4.1h-2C422.1,385.6,423.4,384.4,427,384.9Z" transform="translate(-154.83 -84.06)"/><path class="cls-1" d="M391,356.9h3c3.1,2.9,2.6,5.2-1,7.2-1.7-.1-2.8-1.2-3.9-2.3C388.9,359.9,389.1,358.1,391,356.9Z" transform="translate(-154.83 -84.06)"/><path class="cls-24" d="M358,356.9l3,3c-1.5,3.2-3.3,5.3-7.1,3-1.3-2-.2-4,.1-6Z" transform="translate(-154.83 -84.06)"/><path class="cls-1" d="M357,384.9h5c.2,2.4.9,4.9-1.2,6.9-2,.4-3.8,0-4.9-1.9A9.87,9.87,0,0,1,357,384.9Z" transform="translate(-154.83 -84.06)"/><path class="cls-12" d="M332,384.9l2.1,2.1c0,2.3-.2,4.5-3.1,5.1-1-.4-2-.8-3-1.3,0-2,0-3.9-.1-5.9Z" transform="translate(-154.83 -84.06)"/><path class="cls-40" d="M215,356.8c.9.1,1.9.1,2.8.2.4.6.7,1.2,1.1,1.8a5.55,5.55,0,0,1-5.7,0C213.8,358.1,214.4,357.5,215,356.8Z" transform="translate(-154.83 -84.06)"/><path class="cls-72" d="M213.2,358.8h5.7c-1.6,2.2-3.9.8-5.9,1.1C213.1,359.6,213.1,359.2,213.2,358.8Z" transform="translate(-154.83 -84.06)"/><path class="cls-24" d="M434,389.9a6.42,6.42,0,0,1,4.9-.8c-.4.9-.7,1.8-1.1,2.8-.9.1-1.9.1-2.8.2A2,2,0,0,1,434,389.9Z" transform="translate(-154.83 -84.06)"/><path class="cls-31" d="M377.1,147c0,2-.9,3.1-3,3.2a2.69,2.69,0,0,1-3-2.6,3.08,3.08,0,0,1,3-3.3C376,144.1,376.9,145.3,377.1,147Z" transform="translate(-154.83 -84.06)"/><path class="cls-31" d="M299.2,146.9c-.1,2.2-1.1,3.3-3.1,3.2a2.53,2.53,0,0,1-2.8-2.8,3,3,0,0,1,3.2-3.1C298.1,144.2,298.9,145.4,299.2,146.9Z" transform="translate(-154.83 -84.06)"/><path class="cls-2" d="M326.9,168.1c-.8-.7-1-1.4.2-2,6-.3,12.1-1.7,18,.9a1.18,1.18,0,0,1-.1,1A35.82,35.82,0,0,1,326.9,168.1Z" transform="translate(-154.83 -84.06)"/><path class="cls-36" d="M344.9,168.9a31.17,31.17,0,0,1-17.9.1A82.44,82.44,0,0,1,344.9,168.9Z" transform="translate(-154.83 -84.06)"/><path class="cls-75" d="M344.9,168.9c-6,0-12,.1-17.9.1,0-.3-.1-.6-.1-.9,6,0,12-.1,18-.1A1.39,1.39,0,0,1,344.9,168.9Z" transform="translate(-154.83 -84.06)"/><path class="cls-76" d="M345.1,167c-6-.6-12.1,1.2-18-.9l-.1-.2a35.42,35.42,0,0,1,18,.1A1.8,1.8,0,0,1,345.1,167Z" transform="translate(-154.83 -84.06)"/><path class="cls-77" d="M344.9,166.1c-6,0-12-.1-18-.1a2.77,2.77,0,0,1,.1-.9,60.34,60.34,0,0,1,18,.1A3.08,3.08,0,0,1,344.9,166.1Z" transform="translate(-154.83 -84.06)"/><path class="cls-54" d="M345,165.1c-6,0-12-.1-18-.1A32.4,32.4,0,0,1,345,165.1Z" transform="translate(-154.83 -84.06)"/></svg>